# xmcd
#
# Track frame offsets: 
#        150
#        24840
#        52012
#        79535
#        94505
#        113625
#        149897
#        170377
#        191382
#        207257
#
# Disc length: 2873 seconds
#
# Revision: 2
# Processed by: cddbd v1.5.2PL0 Copyright (c) Steve Scherf et al.
# Submitted via: ExactAudioCopy v1.3
#
DISCID=7d0b370a
DTITLE=Louis Tillett - Cry Against The Faith
DYEAR=1998
DGENRE=Rock
TTITLE0=Since You've Been Gone
TTITLE1=Chained to the Stone
TTITLE2=Windows Pane
TTITLE3=Feeling Free
TTITLE4=Hold Me
TTITLE5=Tombstone Eyes
TTITLE6=And She Sang
TTITLE7=In Loving Memory Of
TTITLE8=It's Gonna Rain
TTITLE9=(Credits)
EXTD=
EXTT0=
EXTT1=
EXTT2=
EXTT3=
EXTT4=
EXTT5=
EXTT6=
EXTT7=
EXTT8=
EXTT9=
PLAYORDER=
